<?xml version="1.0" encoding="iso-8859-1"?>
<!-- Uploaded to: SVG Repo, www.svgrepo.com, Generator: SVG Repo Mixer Tools -->
<svg fill="#000000" height="800px" width="800px" version="1.1" id="Capa_1" xmlns="http://www.w3.org/2000/svg" xmlns:xlink="http://www.w3.org/1999/xlink" 
	 viewBox="0 0 489.038 489.038" xml:space="preserve">
<g>
	<path d="M486,215.481l-293.4-169.3c-4-2.3-10.6-2.3-14.6,0L3.2,147.781c-4,2.3-4,6.1,0,8.5l293.3,169.3c4.1,2.4,10.6,2.3,14.6,0
		l174.9-101.6C490,221.681,490.1,217.881,486,215.481z M333.1,286.481c-1.6-1.6-3.6-3-5.9-4.3c-14.9-8.6-39-8.6-53.9,0
		c-1.1,0.7-2.1,1.3-3.1,2.1l-197.6-114.2c1.9-0.8,3.7-1.6,5.4-2.6c14.8-8.6,14.7-22.6-0.2-31.2c-1.6-0.9-3.4-1.8-5.2-2.5l81.5-47.3
		c1.3,1,2.7,2.1,4.3,3c14.9,8.6,39.1,8.6,53.9,0c1.7-1,3.2-2,4.4-3.1l198.2,114.5c-2.6,0.9-5.1,2-7.3,3.3
		c-14.8,8.6-14.7,22.6,0.2,31.2c2.3,1.3,4.9,2.4,7.6,3.4L333.1,286.481z M357,243.281l-12.9,7.5c-2,1.1-5.2,1.2-7.2,0l-22.7-13.1
		c-2-1.2-2-3,0-4.2l12.9-7.5c2-1.1,5.2-1.2,7.2,0l22.7,13.1C359,240.281,359,242.181,357,243.281z M175,138.181l-12.9,7.5
		c-2,1.1-5.2,1.2-7.2,0l-22.7-13.1c-2-1.2-2-3,0-4.2l12.9-7.5c2-1.1,5.2-1.2,7.2,0l22.7,13.1C177,135.181,177,137.081,175,138.181z
		 M466.2,267.581l22.8,13.2l-183.3,106.5l-6-3.4l-16.9-9.7L0,210.581l22.6-13.1l282.9,163.4L466.2,267.581z M283.2,431.381
		L0,267.581l22.6-13.1l283.3,163.8l160-93l22.8,13.2L306,444.581l-5.9-3.4L283.2,431.381z M302.8,152.081
		c-32.3-18.6-84.6-18.6-116.7,0c-32,18.6-31.9,48.9,0.4,67.6c32.2,18.6,84.5,18.6,116.6,0C335.2,201.081,335,170.781,302.8,152.081z
		 M235.4,195.581h-22.7v-13.1v-12.7l22.8,0.1v12.7l52,0.1v13.2L235.4,195.581z"/>
</g>
</svg>